<svg xmlns="http://www.w3.org/2000/svg" viewBox="0 0 118.52 23.96"><defs><style>.cls-1{fill:#233e84;}</style></defs><g id="Layer_2" data-name="Layer 2"><g id="Layer_1-2" data-name="Layer 1"><path class="cls-1" d="M56.94,14.38c0,2.48-.06,5,0,7.43.05,1.28-.43,1.57-1.66,1.61-5.21.17-5.21.22-5.21-5,0-3.19,0-6.39,0-9.58,0-.72.29-1.87-.93-1.81s-.91,1.14-.92,1.9c0,2.31-.06,4.63,0,6.94,0,1.14-.18,1.68-1.55,1.73-5.31.23-5.31.29-5.31-4.94,0-1.12.07-2.24,0-3.35-.07-.85.45-2.3-1-2.24s-.87,1.49-.89,2.37c0,2.23,0,4.47,0,6.71v2.39c0,5.05,0,5-5.09,4.91-1.34,0-1.81-.36-1.79-1.74.08-4.87,0-9.74,0-14.61,0-2.88,1-5.24,3.8-6.39S41.87-.25,44,2.15c.83,1,1.25.49,1.85-.16C47.9-.24,50.53-.35,53.17.56s3.59,3.32,3.72,5.92,0,5.27,0,7.9Z"/><path class="cls-1" d="M94.3,10.34c0,.15,0,.29,0,.44l.41-.52c-.23-1,.42-1.86.46-2.82"/><path class="cls-1" d="M114.29,21.11a11.9,11.9,0,0,0,1.43-16.75c-5.89-6.91-16-5.4-20.53,3.08,0,1-.69,1.82-.46,2.82l-.41.52a13.92,13.92,0,0,0,2,6c.64,1.2,1.17,2.45,1.78,3.66A11.91,11.91,0,0,0,114.29,21.11ZM101.46,12a5,5,0,1,1,10,.07,5,5,0,1,1-10-.07Z"/><path class="cls-1" d="M6.44.7a27.61,27.61,0,0,1,7.69.6C20,3,23.15,8.48,21.75,14.64A11.5,11.5,0,0,1,9.13,23.48c-.73-.1-1.22-.22-1.2-1.08,0-1.52,0-3,0-4.55s1.31-1.05,2.13-1.14c3.76-.41,5.64-2.84,4.74-6.22-.64-2.39-5.49-4.4-7.5-3.11-.58.38-.38,1-.39,1.53,0,2.23-.07,4.47,0,6.7.06,1.35-.19,2-1.81,2-5.07.05-5.07.13-5.07-4.93,0-3.27.12-6.55,0-9.81C-.09,1,.59.49,2.33.67,3.69.8,5.07.69,6.44.7Z"/><path class="cls-1" d="M95.2,23.38A43,43,0,0,0,93.38,19c-1.61-2.87-2.39-5.62.49-8.19a3.57,3.57,0,0,0,.47-3.41c-1-4.57-3.55-6.66-8.28-6.73-2.42,0-4.84.06-7.26,0-1.44-.07-2,.31-1.93,1.84.11,3.35,0,6.7,0,10.05,0,5.23,0,5.18,5.24,5,1.26,0,1.68-.39,1.64-1.64-.08-2.47,0-4.94,0-7.42,0-.78-.17-1.67,1.13-1.61,1,0,2,0,2.39,1.17s-.23,1.68-1.23,2c-.66.2-1.28.2-1.42,1.24-.59,4.32,1.4,7.9,3.17,11.56a1,1,0,0,0,1,.52Z"/><path class="cls-1" d="M58.88,14.67c0-2.31-.12-4.64,0-6.94C59.21,2.68,63.83-.63,69.23.22a8.1,8.1,0,0,1,6.5,9.85A7.1,7.1,0,0,1,68,15.58c-.47-.05-.94,0-1.21-.55-.6-1.27.23-4.85,1.42-5.86a1.45,1.45,0,0,0,.57-1.47,1.26,1.26,0,0,0-1.17-1A1.48,1.48,0,0,0,66,7.39a3.88,3.88,0,0,0-.29,2.1c0,4-.05,8,0,12,0,1.34-.18,2-1.8,2-5.07,0-5.07.12-5.07-4.94V14.67Z"/><path class="cls-1" d="M30.32,12.26c0,3.11-.05,6.22,0,9.33,0,1.25-.19,1.81-1.67,1.85-5.21.12-5.21.18-5.21-5s.06-10.36,0-15.54c0-1.57.25-2.23,2.06-2.21,4.83,0,4.83,0,4.83,4.68Z"/><path class="cls-1" d="M94.28,10.83l.45-.57C94.32,10.24,94.07,10.35,94.28,10.83Z"/><path class="cls-1" d="M98.14,20.47c.24-2.22-1.11-3.94-2.16-5.62a7.36,7.36,0,0,1-1.25-4.59l-.45.57C94.38,14.5,95,18,98.14,20.47Z"/></g></g></svg>